<?xml version="1.0" encoding="utf-8"?><svg width="115" height="72" viewBox="0 0 115 72" xmlns="http://www.w3.org/2000/svg" xmlns:xlink="http://www.w3.org/1999/xlink"><svg width="43" height="22" viewBox="0 0 43 22" id="arrow" x="71.688" xmlns="http://www.w3.org/2000/svg"><defs><style>.acls-1{fill:#374a97;fill-rule:evenodd}</style></defs><path id="aarrow" class="acls-1" d="M994.558 929.425a1.569 1.569 0 0 0-2.148 0l-18.89 18.1-18.928-18.1a1.569 1.569 0 0 0-2.148 0 1.409 1.409 0 0 0 0 2.055l19.965 19.1a1.518 1.518 0 0 0 1.074.425 1.585 1.585 0 0 0 1.074-.425l19.964-19.1a1.381 1.381 0 0 0 .037-2.055z" transform="translate(-952 -929)"/></svg><svg width="14" height="29.03" viewBox="0 0 14 29.03" id="fb" x="71.688" y="22" xmlns="http://www.w3.org/2000/svg"><defs><style>.bcls-1{fill:#374a97;fill-rule:evenodd}</style></defs><path id="bfb" class="bcls-1" d="M898.018 1363.61v4h-3.026v4.89h3.026v14.52h6.216v-14.52h4.17s.39-2.35.58-4.91h-4.727v-3.34a1.446 1.446 0 0 1 1.347-1.17h3.387v-5.09h-4.605c-6.522 0-6.368 4.89-6.368 5.62z" transform="translate(-895 -1358)"/></svg><svg id="icon-bg" width="71.688" height="71.68" viewBox="0 0 71.688 71.68" xmlns="http://www.w3.org/2000/svg"><defs><style>.ccls-1{fill:#fff}.ccls-1,.ccls-3{stroke:#374a97;stroke-width:1px}.ccls-1,.ccls-2,.ccls-3{fill-rule:evenodd}.ccls-2{fill:#374a97}.ccls-3{fill:none}</style></defs><path id="c矩形_10_拷貝" data-name="矩形 10 拷貝" class="ccls-1" d="M539 3312.64l35.355 35.36L539 3383.36 503.645 3348z" transform="translate(-503.156 -3312.16)"/><path id="c矩形_10_拷貝_7" data-name="矩形 10 拷貝 7" class="ccls-2" d="M538.906 3317.4l2.568 2.58-2.568 2.58-2.568-2.58zm27.941 28.02l2.568 2.58-2.568 2.58-2.568-2.58zm-27.941 28.03l2.568 2.58-2.568 2.57-2.568-2.57zm-27.94-28.03l2.568 2.58-2.568 2.58-2.566-2.58z" transform="translate(-503.156 -3312.16)"/><path id="c矩形_10_拷貝_6" data-name="矩形 10 拷貝 6" class="ccls-3" d="M539 3312.93l7.071 7.07-7.071 7.07-7.071-7.07zm0 56l7.071 7.07-7.071 7.07-7.071-7.07zm-28-28l7.071 7.07-7.071 7.07-7.071-7.07zm56 0l7.071 7.07-7.071 7.07-7.071-7.07z" transform="translate(-503.156 -3312.16)"/></svg><svg width="17.97" height="25" viewBox="0 0 17.97 25" id="sound" x="85.688" y="22" xmlns="http://www.w3.org/2000/svg"><defs><style>.dcls-1{fill:#77e5c9;fill-rule:evenodd}</style></defs><path id="dsound" class="dcls-1" d="M1898.01 950.394a1.617 1.617 0 0 1-.94 1.46 1.64 1.64 0 0 1-.69.153 1.663 1.663 0 0 1-1.05-.37l-8.92-7.307h-4.76a1.622 1.622 0 0 1-1.63-1.613v-6.424a1.621 1.621 0 0 1 1.63-1.613h4.76l8.92-7.307a1.656 1.656 0 0 1 1.74-.217 1.616 1.616 0 0 1 .94 1.46v21.778z" transform="translate(-1880.03 -927)"/></svg><svg width="14" height="11" viewBox="0 0 14 11" id="speaker" x="71.688" y="51.03" xmlns="http://www.w3.org/2000/svg"><defs><style>.ecls-1{fill:#fff;fill-rule:evenodd}</style></defs><path id="espeaker" class="ecls-1" d="M811 4272.82a.619.619 0 0 1-.365.57.643.643 0 0 1-.27.06.665.665 0 0 1-.4-.14l-3.473-2.85h-1.849a.637.637 0 0 1-.635-.63v-2.51a.631.631 0 0 1 .635-.63h1.849l3.473-2.86a.637.637 0 0 1 .675-.08.619.619 0 0 1 .365.57v8.5zm2.441-.98h-.041a.628.628 0 0 1-.449-.18l-.085-.09a.624.624 0 0 1-.061-.82 3.639 3.639 0 0 0-.1-4.49.623.623 0 0 1 .044-.84l.085-.08a.615.615 0 0 1 .481-.19.672.672 0 0 1 .46.23 5.02 5.02 0 0 1 .132 6.21.645.645 0 0 1-.462.25zm2.626 1.95a.663.663 0 0 1-.459.22h-.027a.637.637 0 0 1-.449-.19l-.083-.08a.625.625 0 0 1-.037-.85 6.672 6.672 0 0 0-.112-8.77.624.624 0 0 1 .025-.86l.083-.08a.622.622 0 0 1 .469-.19.654.654 0 0 1 .456.21 8.045 8.045 0 0 1 .138 10.59z" transform="translate(-804 -4263)"/></svg></svg>